<svg xmlns="http://www.w3.org/2000/svg" xmlns:xlink="http://www.w3.org/1999/xlink" contentStyleType="text/css" height="693.75px" preserveAspectRatio="none" style="width:1191px;height:693px;" version="1.1" viewBox="0 0 1191 693" width="1191.6667px" zoomAndPan="magnify"><defs><filter height="300%" id="fdaw98b1oms3t" width="300%" x="-1" y="-1"><feGaussianBlur result="blurOut" stdDeviation="2.0833333333333335"/><feColorMatrix in="blurOut" result="blurOut2" type="matrix" values="0 0 0 0 0 0 0 0 0 0 0 0 0 0 0 0 0 0 .4 0"/><feOffset dx="4.166666666666667" dy="4.166666666666667" in="blurOut2" result="blurOut3"/><feBlend in="SourceGraphic" in2="blurOut3" mode="normal"/></filter><linearGradient id="gdaw98b1oms3t0" x1="50%" x2="50%" y1="0%" y2="100%"><stop offset="0%" stop-color="#F2FCFE"/><stop offset="100%" stop-color="#EEEEEE"/></linearGradient></defs><g><!--cluster VPC--><g id="cluster_VPC"><rect fill="none" filter="url(#fdaw98b1oms3t)" height="448.6354" rx="4.1667" ry="4.1667" style="stroke:#2196F3;stroke-width:2.0833333333333335;" width="800" x="17.7083" y="227.6534"/><text fill="#2196F3" font-family="Verdana" font-size="12.5" font-weight="bold" lengthAdjust="spacing" textLength="28.009" x="403.7038" y="251.7562">VPC</text></g><!--cluster Public Subnets--><g id="cluster_Public Subnets"><rect fill="none" filter="url(#fdaw98b1oms3t)" height="127.0521" rx="4.1667" ry="4.1667" style="stroke:#2196F3;stroke-width:2.0833333333333335;" width="328.125" x="51.0417" y="449.2368"/><text fill="#2196F3" font-family="Verdana" font-size="12.5" font-weight="bold" lengthAdjust="spacing" textLength="104.9805" x="162.6139" y="473.3396">Public Subnets</text></g><!--cluster Private Subnets--><g id="cluster_Private Subnets"><rect fill="none" filter="url(#fdaw98b1oms3t)" height="335.3854" rx="4.1667" ry="4.1667" style="stroke:#2196F3;stroke-width:2.0833333333333335;" width="380.2083" x="404.1667" y="307.5701"/><text fill="#2196F3" font-family="Verdana" font-size="12.5" font-weight="bold" lengthAdjust="spacing" textLength="112.6404" x="537.9506" y="331.6729">Private Subnets</text></g><!--cluster eks--><g id="cluster_eks"><rect fill="none" filter="url(#fdaw98b1oms3t)" height="231.2187" rx="4.1667" ry="4.1667" style="stroke:#2196F3;stroke-width:2.0833333333333335;" width="237.5" x="437.5" y="378.4034"/><text fill="#2196F3" font-family="Verdana" font-size="12.5" font-weight="bold" lengthAdjust="spacing" textLength="81.9946" x="515.2527" y="402.5062">EKS Cluster</text></g><!--cluster Node Group--><g id="cluster_Node Group"><rect fill="none" filter="url(#fdaw98b1oms3t)" height="127.0521" rx="4.1667" ry="4.1667" style="stroke:#2196F3;stroke-width:2.0833333333333335;" width="162.5" x="470.8333" y="449.2368"/><text fill="#2196F3" font-family="Verdana" font-size="12.5" font-weight="bold" lengthAdjust="spacing" textLength="83.6853" x="510.2407" y="473.3396">Node Group</text></g><!--entity nat--><g id="elem_nat"><rect fill="none" filter="url(#fdaw98b1oms3t)" height="56.2174" rx="4.1667" ry="4.1667" style="stroke:#2196F3;stroke-width:2.0833333333333335;" width="126.3957" x="68.0521" y="503.4034"/><text fill="#2196F3" font-family="Verdana" font-size="12.5" lengthAdjust="spacing" textLength="84.729" x="88.8854" y="535.8396">NAT Gateway</text></g><!--entity nginx--><g id="elem_nginx"><rect fill="none" filter="url(#fdaw98b1oms3t)" height="56.2174" rx="4.1667" ry="4.1667" style="stroke:#2196F3;stroke-width:2.0833333333333335;" width="131.6752" x="231.0417" y="503.4034"/><text fill="#2196F3" font-family="Verdana" font-size="12.5" lengthAdjust="spacing" textLength="90.0085" x="251.875" y="535.8396">NGINX Ingress</text></g><!--entity efs--><g id="elem_efs"><rect fill="none" filter="url(#fdaw98b1oms3t)" height="56.2174" rx="4.1667" ry="4.1667" style="stroke:#2196F3;stroke-width:2.0833333333333335;" width="64.6891" x="703.0729" y="503.4034"/><text fill="#2196F3" font-family="Verdana" font-size="12.5" lengthAdjust="spacing" textLength="23.0225" x="723.9063" y="535.8396">EFS</text></g><!--entity ec2--><g id="elem_ec2"><rect fill="none" filter="url(#fdaw98b1oms3t)" height="56.2174" rx="4.1667" ry="4.1667" style="stroke:#2196F3;stroke-width:2.0833333333333335;" width="129.8991" x="487.1354" y="503.4034"/><text fill="#2196F3" font-family="Verdana" font-size="12.5" lengthAdjust="spacing" textLength="88.2324" x="507.9688" y="535.8396">EC2 Instances</text></g><!--entity route53--><g id="elem_route53"><path d="M691.4081,26.7639 C694.5066,20.9984 699.1248,20.3191 702.7565,26.2465 C704.6758,20.0338 708.5528,19.773 713.0533,23.5988 C716.3768,17.4678 721.6979,18.3078 724.6245,23.9876 C726.6587,16.6667 731.8658,16.6871 736.7961,20.9426 C741.2731,16.6807 746.1258,16.7288 748.2999,23.3718 C752.7232,19.6204 756.0442,20.4257 758.7752,25.4027 C762.9855,20.2556 767.1713,20.2234 771.4348,25.337 C775.1551,20.418 780.9013,20.71 783.0572,26.9643 C789.6671,28.6141 789.933,33.7918 786.1579,38.2858 C792.5479,41.3699 793.5905,45.7577 788.0861,50.6907 C792.7986,56.8622 792.7761,62.0132 784.6804,65.1727 C789.4484,69.6406 787.2649,74.6795 781.5226,76.1138 C778.8908,81.993 774.5446,82.1329 771.1452,76.8259 C768.7115,82.129 764.1182,84.3764 759.6892,78.958 C757.3908,83.8664 752.6585,85.4682 748.854,80.6329 C746.0819,85.854 740.4898,87.8761 736.7523,81.6539 C733.0551,86.7819 727.6759,85.9962 725.6816,79.9646 C720.9618,84.8194 716.9571,84.2803 714.351,77.8436 C709.7975,82.7582 705.9567,83.4725 702.5094,76.7207 C698.7335,82.118 694.0661,81.1766 691.2315,75.7407 C684.1646,74.1295 684.1877,69.4015 687.9334,64.5916 C680.69,61.597 681.319,54.8171 687.0263,50.9606 C681.9503,46.9112 681.7129,43.3956 687.5112,39.8195 C682.7782,33.6581 684.8361,29.551 691.4081,26.7639 " fill="url(#gdaw98b1oms3t0)" filter="url(#fdaw98b1oms3t)" style="stroke:#F2FCFE;stroke-width:1.0416666666666667;"/><text fill="#222222" font-family="Verdana" font-size="12.5" lengthAdjust="spacing" textLength="56.7261" x="707.0521" y="54.9437">Route 53</text></g><!--entity igw--><g id="elem_igw"><rect fill="none" filter="url(#fdaw98b1oms3t)" height="56.2174" rx="4.1667" ry="4.1667" style="stroke:#2196F3;stroke-width:2.0833333333333335;" width="150.7121" x="660.0625" y="146.4347"/><text fill="#2196F3" font-family="Verdana" font-size="12.5" lengthAdjust="spacing" textLength="109.0454" x="680.8958" y="178.8708">Internet Gateway</text></g><!--entity acm--><g id="elem_acm"><rect fill="none" filter="url(#fdaw98b1oms3t)" height="56.2174" rx="4.1667" ry="4.1667" style="stroke:#2196F3;stroke-width:2.0833333333333335;" width="69.7306" x="842.2188" y="503.4034"/><text fill="#2196F3" font-family="Verdana" font-size="12.5" lengthAdjust="spacing" textLength="28.064" x="863.0521" y="535.8396">ACM</text></g><!--entity iam--><g id="elem_iam"><rect fill="none" filter="url(#fdaw98b1oms3t)" height="56.2174" rx="4.1667" ry="4.1667" style="stroke:#2196F3;stroke-width:2.0833333333333335;" width="64.6891" x="948.9063" y="503.4034"/><text fill="#2196F3" font-family="Verdana" font-size="12.5" lengthAdjust="spacing" textLength="23.0225" x="969.7396" y="535.8396">IAM</text></g><!--entity externaldns--><g id="elem_externaldns"><rect fill="none" filter="url(#fdaw98b1oms3t)" height="56.2174" rx="4.1667" ry="4.1667" style="stroke:#2196F3;stroke-width:2.0833333333333335;" width="124.6318" x="1050.1875" y="503.4034"/><text fill="#2196F3" font-family="Verdana" font-size="12.5" lengthAdjust="spacing" textLength="82.9651" x="1071.0208" y="535.8396">External DNS</text></g><!--link route53 to igw--><g id="link_route53_igw"><path d="M735.4167,84.1534 C735.4167,103.5076 735.4167,121.3409 735.4167,139.7784 " fill="none" id="route53-to-igw" style="stroke:#2196F3;stroke-width:3.125;"/><polygon fill="#2196F3" points="735.4167,146.0284,739.5833,136.6534,735.4167,140.8201,731.25,136.6534,735.4167,146.0284" style="stroke:#2196F3;stroke-width:3.125;"/></g><!--link igw to VPC--><g id="link_igw_VPC"><path d="M735.7604,203.0076 C735.7604,209.7706 735.7604,217.1801 735.7604,224.5789 C735.7604,225.5037 735.7604,220.1784 735.7604,221.1017 " fill="none" id="igw-to-VPC" style="stroke:#2196F3;stroke-width:3.125;"/><polygon fill="#2196F3" points="735.7604,227.3517,739.9271,217.9767,735.7604,222.1433,731.5938,217.9767,735.7604,227.3517" style="stroke:#2196F3;stroke-width:3.125;"/></g><!--link VPC to nat--><g id="link_VPC_nat"><path d="M735.0729,273.4555 C735.0729,269.4868 735.0729,237.7472 735.0729,237.7472 C735.0729,237.7472 131.25,237.7472 131.25,237.7472 C131.25,237.7472 131.25,423.1014 131.25,496.8305 " fill="none" id="VPC-to-nat" style="stroke:#2196F3;stroke-width:3.125;"/><polygon fill="#2196F3" points="131.25,503.0805,135.4167,493.7055,131.25,497.8722,127.0833,493.7055,131.25,503.0805" style="stroke:#2196F3;stroke-width:3.125;"/></g><!--link VPC to nginx--><g id="link_VPC_nginx"><path d="M734.7083,274.2055 C715.1042,274.2055 296.875,274.2055 296.875,274.2055 C296.875,274.2055 296.875,429.7472 296.875,496.7472 " fill="none" id="VPC-to-nginx" style="stroke:#2196F3;stroke-width:3.125;"/><polygon fill="#2196F3" points="296.875,502.9972,301.0417,493.6222,296.875,497.7889,292.7083,493.6222,296.875,502.9972" style="stroke:#2196F3;stroke-width:3.125;"/></g><!--link VPC to eks--><g id="link_VPC_eks"><path d="M735.3646,275.2472 C733.2813,275.2472 666.6667,275.2472 666.6667,275.2472 C666.6667,275.2472 666.6667,290.2784 666.6667,313.0602 C666.6667,324.4511 666.6667,337.7795 666.6667,352.1356 C666.6667,359.3136 666.6667,366.7485 666.6667,374.3265 C666.6667,375.2737 666.6667,369.9732 666.6667,370.9247 " fill="none" id="VPC-to-eks" style="stroke:#2196F3;stroke-width:3.125;"/><polygon fill="#2196F3" points="666.6667,377.1747,670.8333,367.7997,666.6667,371.9664,662.5,367.7997,666.6667,377.1747" style="stroke:#2196F3;stroke-width:3.125;"/></g><!--link VPC to efs--><g id="link_VPC_efs"><path d="M735.0729,274.6014 C735.0729,286.4972 735.0729,432.5805 735.0729,496.9034 " fill="none" id="VPC-to-efs" style="stroke:#2196F3;stroke-width:3.125;"/><polygon fill="#2196F3" points="735.0729,503.1534,739.2396,493.7784,735.0729,497.9451,730.9063,493.7784,735.0729,503.1534" style="stroke:#2196F3;stroke-width:3.125;"/></g><!--reverse link VPC to acm--><g id="link_VPC_acm"><path d="M824.7291,275.2472 C825.2655,275.2472 820.3564,275.2472 820.8906,275.2472 C825.1647,275.2472 829.3643,275.2472 833.4237,275.2472 C841.5423,275.2472 849.0996,275.2472 855.5677,275.2472 C868.5039,275.2472 877.0833,275.2472 877.0833,275.2472 C877.0833,275.2472 877.0833,436.3826 877.0833,503.1118 " fill="none" id="VPC-backto-acm" style="stroke:#2196F3;stroke-width:3.125;"/><polygon fill="#2196F3" points="818.4791,275.2472,827.8541,279.4139,823.6874,275.2472,827.8541,271.0805,818.4791,275.2472" style="stroke:#2196F3;stroke-width:3.125;"/></g><!--reverse link VPC to iam--><g id="link_VPC_iam"><path d="M824.9385,274.2055 C839.1605,274.2055 849.224,274.2055 864.0938,274.2055 C923.5729,274.2055 981.25,274.2055 981.25,274.2055 C981.25,274.2055 981.25,435.9972 981.25,502.9972 " fill="none" id="VPC-backto-iam" style="stroke:#2196F3;stroke-width:3.125;"/><polygon fill="#2196F3" points="818.6885,274.2055,828.0635,278.3722,823.8968,274.2055,828.0635,270.0389,818.6885,274.2055" style="stroke:#2196F3;stroke-width:3.125;"/></g><!--reverse link VPC to externaldns--><g id="link_VPC_externaldns"><path d="M825.6211,389.8305 C835.7387,389.8305 843.9259,389.8305 854.9632,389.8305 C877.0378,389.8305 900.584,389.8305 924.1302,389.8305 C1018.3151,389.8305 1112.5,389.8305 1112.5,389.8305 C1112.5,389.8305 1112.5,461.8305 1112.5,503.1847 " fill="none" id="VPC-backto-externaldns" style="stroke:#2196F3;stroke-width:3.125;"/><polygon fill="#2196F3" points="819.3711,389.8305,828.7461,393.9972,824.5795,389.8305,828.7461,385.6639,819.3711,389.8305" style="stroke:#2196F3;stroke-width:3.125;"/></g><!--SRC=[XL5DRu904BtlhvXovwBnseGW9QQM6hLDhokCk14MihjKJUD_x_1HkujDIiB2l7tpvkCzc0EM22Ktg0JtgyOKGY9xo71FNrX7uJP8ucLqGyBbwzkSCNqKikQAbz3opQL6g9GvL8obHTLauAr92c4szO1hK6qmcpA5gU4oBn2yXQIAb0anbJxnIySJ-OdPfFTLwC4N0teiTDNi2f72fjbHlluXZ4X9i7Ma9JT_qk95yW4BcIlKkYVcGfuxwhKxxwehyKcw_vIFdZSG5esc8JjLF6gBE6wYoX1YMbBjZKXZrN12lMeAK-oxnNJY95pP_PyjyBJfq_Pw6F7gB3m8NxfxdfQEMK4F2-x0qRdra1SmJmRP0SYa9jdUTF2pwYJznyvSUcyncSiO7JUWjSY9EoTiXBRenZG6erx1R-f1aLgq8gkXN_GR]--></g></svg>